<svg version="1.1" 
	xmlns="http://www.w3.org/2000/svg" 
	xmlns:xlink="http://www.w3.org/1999/xlink" 
	x="0px" y="0px"
	 viewBox="0 0 330 860" 
	 style="enable-background:new 0 0 330 860;" 
	 xml:space="preserve">
<style type="text/css">
	.ngb_attention_line_st0{fill:#D1D3D4;}
</style>
<g >
	<polygon  class="ngb_attention_line_st0" points="14.3,28 5.4,19.2 5.4,5 14.3,13.9 	"/>
	<polygon  class="ngb_attention_line_st0" points="14.3,56.3 5.4,47.5 5.4,33.3 14.3,42.2 	"/>
	<polygon  class="ngb_attention_line_st0" points="14.3,84.6 5.4,75.8 5.4,61.6 14.3,70.5 	"/>
	<polygon  class="ngb_attention_line_st0" points="14.3,112.9 5.4,104 5.4,89.9 14.3,98.8 	"/>
	<polygon  class="ngb_attention_line_st0" points="14.3,127 14.3,141.2 5.4,132.3 5.4,118.2 	"/>
	<polygon  class="ngb_attention_line_st0" points="14.3,171 5.4,162.1 5.4,148 14.3,156.8 	"/>
	<polygon  class="ngb_attention_line_st0" points="14.3,199.3 5.4,190.4 5.4,176.3 14.3,185.1 	"/>
	<polygon  class="ngb_attention_line_st0" points="14.3,227.6 5.4,218.7 5.4,204.6 14.3,213.4 	"/>
	<polygon  class="ngb_attention_line_st0" points="14.3,255.8 5.4,247 5.4,232.8 14.3,241.7 	"/>
	<polygon  class="ngb_attention_line_st0" points="14.3,270 14.3,284.1 5.4,275.3 5.4,261.1 	"/>
	<polygon  class="ngb_attention_line_st0" points="14.3,314.2 5.4,305.4 5.4,291.2 14.3,300.1 	"/>
	<polygon  class="ngb_attention_line_st0" points="14.3,342.5 5.4,333.7 5.4,319.5 14.3,328.4 	"/>
	<polygon  class="ngb_attention_line_st0" points="14.3,370.8 5.4,361.9 5.4,347.8 14.3,356.7 	"/>
	<polygon  class="ngb_attention_line_st0" points="14.3,399.1 5.4,390.2 5.4,376.1 14.3,384.9 	"/>
	<polygon  class="ngb_attention_line_st0" points="14.3,413.2 14.3,427.4 5.4,418.5 5.4,404.4 	"/>
	<polygon  class="ngb_attention_line_st0" points="315.7,28 324.6,19.2 324.6,5 315.7,13.9 	"/>
	<polygon  class="ngb_attention_line_st0" points="315.7,56.3 324.6,47.5 324.6,33.3 315.7,42.2 	"/>
	<polygon  class="ngb_attention_line_st0" points="315.7,84.6 324.6,75.8 324.6,61.6 315.7,70.5 	"/>
	<polygon  class="ngb_attention_line_st0" points="315.7,112.9 324.6,104 324.6,89.9 315.7,98.8 	"/>
	<polygon  class="ngb_attention_line_st0" points="315.7,127 315.7,141.2 324.6,132.3 324.6,118.2 	"/>
	<polygon  class="ngb_attention_line_st0" points="315.7,171 324.6,162.1 324.6,148 315.7,156.8 	"/>
	<polygon  class="ngb_attention_line_st0" points="315.7,199.3 324.6,190.4 324.6,176.3 315.7,185.1 	"/>
	<polygon  class="ngb_attention_line_st0" points="315.7,227.6 324.6,218.7 324.6,204.6 315.7,213.4 	"/>
	<polygon  class="ngb_attention_line_st0" points="315.7,255.8 324.6,247 324.6,232.8 315.7,241.7 	"/>
	<polygon  class="ngb_attention_line_st0" points="315.7,270 315.7,284.1 324.6,275.3 324.6,261.1 	"/>
	<polygon  class="ngb_attention_line_st0" points="315.7,314.2 324.6,305.4 324.6,291.2 315.7,300.1 	"/>
	<polygon  class="ngb_attention_line_st0" points="315.7,342.5 324.6,333.7 324.6,319.5 315.7,328.4 	"/>
	<polygon  class="ngb_attention_line_st0" points="315.7,370.8 324.6,361.9 324.6,347.8 315.7,356.7 	"/>
	<polygon  class="ngb_attention_line_st0" points="315.7,399.1 324.6,390.2 324.6,376.1 315.7,384.9 	"/>
	<polygon  class="ngb_attention_line_st0" points="315.7,413.2 315.7,427.4 324.6,418.5 324.6,404.4 	"/>
	<polygon  class="ngb_attention_line_st0" points="14.3,455.7 5.4,446.8 5.4,432.7 14.3,441.5 	"/>
	<polygon  class="ngb_attention_line_st0" points="14.3,484 5.4,475.1 5.4,460.9 14.3,469.8 	"/>
	<polygon  class="ngb_attention_line_st0" points="14.3,512.2 5.4,503.4 5.4,489.2 14.3,498.1 	"/>
	<polygon  class="ngb_attention_line_st0" points="14.3,540.5 5.4,531.7 5.4,517.5 14.3,526.4 	"/>
	<polygon  class="ngb_attention_line_st0" points="14.3,554.7 14.3,568.8 5.4,559.9 5.4,545.8 	"/>
	<polygon  class="ngb_attention_line_st0" points="14.3,598.6 5.4,589.7 5.4,575.6 14.3,584.5 	"/>
	<polygon  class="ngb_attention_line_st0" points="14.3,626.9 5.4,618 5.4,603.9 14.3,612.8 	"/>
	<polygon  class="ngb_attention_line_st0" points="14.3,655.2 5.4,646.3 5.4,632.2 14.3,641 	"/>
	<polygon  class="ngb_attention_line_st0" points="14.3,683.5 5.4,674.6 5.4,660.5 14.3,669.3 	"/>
	<polygon  class="ngb_attention_line_st0" points="14.3,697.6 14.3,711.7 5.4,702.9 5.4,688.7 	"/>
	<polygon  class="ngb_attention_line_st0" points="14.3,741.9 5.4,733 5.4,718.9 14.3,727.7 	"/>
	<polygon  class="ngb_attention_line_st0" points="14.3,770.1 5.4,761.3 5.4,747.1 14.3,756 	"/>
	<polygon  class="ngb_attention_line_st0" points="14.3,798.4 5.4,789.6 5.4,775.4 14.3,784.3 	"/>
	<polygon  class="ngb_attention_line_st0" points="14.3,826.7 5.4,817.8 5.4,803.7 14.3,812.6 	"/>
	<polygon  class="ngb_attention_line_st0" points="14.3,840.9 14.3,855 5.4,846.1 5.4,832 	"/>
	<polygon  class="ngb_attention_line_st0" points="315.7,455.7 324.6,446.8 324.6,432.7 315.7,441.5 	"/>
	<polygon  class="ngb_attention_line_st0" points="315.7,484 324.6,475.1 324.6,460.9 315.7,469.8 	"/>
	<polygon  class="ngb_attention_line_st0" points="315.7,512.2 324.6,503.4 324.6,489.2 315.7,498.1 	"/>
	<polygon  class="ngb_attention_line_st0" points="315.7,540.5 324.6,531.7 324.6,517.5 315.7,526.4 	"/>
	<polygon  class="ngb_attention_line_st0" points="315.7,554.7 315.7,568.8 324.6,559.9 324.6,545.8 	"/>
	<polygon  class="ngb_attention_line_st0" points="315.7,598.6 324.6,589.7 324.6,575.6 315.7,584.5 	"/>
	<polygon  class="ngb_attention_line_st0" points="315.7,626.9 324.6,618 324.6,603.9 315.7,612.8 	"/>
	<polygon  class="ngb_attention_line_st0" points="315.7,655.2 324.6,646.3 324.6,632.2 315.7,641 	"/>
	<polygon  class="ngb_attention_line_st0" points="315.7,683.5 324.6,674.6 324.6,660.5 315.7,669.3 	"/>
	<polygon  class="ngb_attention_line_st0" points="315.7,697.6 315.7,711.7 324.6,702.9 324.6,688.7 	"/>
	<polygon  class="ngb_attention_line_st0" points="315.7,741.9 324.6,733 324.6,718.9 315.7,727.7 	"/>
	<polygon  class="ngb_attention_line_st0" points="315.7,770.1 324.6,761.3 324.6,747.1 315.7,756 	"/>
	<polygon  class="ngb_attention_line_st0" points="315.7,798.4 324.6,789.6 324.6,775.4 315.7,784.3 	"/>
	<polygon  class="ngb_attention_line_st0" points="315.7,826.7 324.6,817.8 324.6,803.7 315.7,812.6 	"/>
	<polygon  class="ngb_attention_line_st0" points="315.7,840.9 315.7,855 324.6,846.1 324.6,832 	"/>
</g>
</svg>
