<svg version="1.1" id="roadline_wide" 
	xmlns="http://www.w3.org/2000/svg" 
	xmlns:xlink="http://www.w3.org/1999/xlink" 
	x="0px" y="0px"
	viewBox="0 0 1280 3130" 
	style="enable-background:new 0 0 1280 3130;" 
	xml:space="preserve">
<style type="text/css">
	.roadline_st0{fill:#FFFFFF;}
</style>
<g >
	<rect x="630" y="4.7" class="roadline_st0" width="20" height="80"/>
	<rect x="630" y="164.7" class="roadline_st0" width="20" height="80"/>
	<rect x="630" y="324.7" class="roadline_st0" width="20" height="80"/>
	<rect x="630" y="484.7" class="roadline_st0" width="20" height="80"/>
	<rect x="630" y="644.7" class="roadline_st0" width="20" height="80"/>
	<rect x="630" y="804.7" class="roadline_st0" width="20" height="80"/>
	<rect x="630" y="964.7" class="roadline_st0" width="20" height="80"/>
	<rect x="630" y="1124.7" class="roadline_st0" width="20" height="80"/>
	<rect x="630" y="1284.7" class="roadline_st0" width="20" height="80"/>
	<rect x="630" y="1444.7" class="roadline_st0" width="20" height="80"/>
	<rect x="630" y="1604.7" class="roadline_st0" width="20" height="80"/>
	<rect x="630" y="1764.7" class="roadline_st0" width="20" height="80"/>
	<rect x="630" y="1924.7" class="roadline_st0" width="20" height="80"/>
	<rect x="630" y="2084.7" class="roadline_st0" width="20" height="80"/>
	<rect x="630" y="2245.3" class="roadline_st0" width="20" height="80"/>
	<rect x="630" y="2405.3" class="roadline_st0" width="20" height="80"/>
	<rect x="630" y="2565.3" class="roadline_st0" width="20" height="80"/>
	<rect x="630" y="2725.3" class="roadline_st0" width="20" height="80"/>
	<rect x="630" y="2885.3" class="roadline_st0" width="20" height="80"/>
	<rect x="630" y="3045.3" class="roadline_st0" width="20" height="80"/>
</g>
</svg>
