<svg version="1.1"  
	xmlns="http://www.w3.org/2000/svg" 
	xmlns:xlink="http://www.w3.org/1999/xlink" 
	x="0px" y="0px"
	viewBox="0 0 1280 3190" 
	style="enable-background:new 0 0 1280 3190;" 
	xml:space="preserve">
<style type="text/css">
	.st0{fill:#FFFFFF;}
</style>
<g id="roadline">
	<rect id="XMLID_2716_" x="66.4" y="39.1" class="st0" width="20" height="80"/>
	<rect id="XMLID_2719_" x="66.4" y="199.1" class="st0" width="20" height="80"/>
	<rect id="XMLID_2723_" x="66.4" y="359.1" class="st0" width="20" height="80"/>
	<rect id="XMLID_2721_" x="66.4" y="519.1" class="st0" width="20" height="80"/>
	<rect id="XMLID_2731_" x="66.4" y="679.1" class="st0" width="20" height="80"/>
	<rect id="XMLID_2729_" x="66.4" y="839.1" class="st0" width="20" height="80"/>
	<rect id="XMLID_2727_" x="66.4" y="999.1" class="st0" width="20" height="80"/>
	<rect id="XMLID_3082_" x="66.4" y="1159.1" class="st0" width="20" height="80"/>
	<rect id="XMLID_3080_" x="66.4" y="1319.1" class="st0" width="20" height="80"/>
	<rect id="XMLID_3078_" x="66.4" y="1479.1" class="st0" width="20" height="80"/>
	<rect id="XMLID_3076_" x="66.4" y="1639.1" class="st0" width="20" height="80"/>
	<rect id="XMLID_3074_" x="66.4" y="1799.1" class="st0" width="20" height="80"/>
	<rect id="XMLID_3072_" x="66.4" y="1959.1" class="st0" width="20" height="80"/>
	<rect id="XMLID_3070_" x="66.4" y="2119.1" class="st0" width="20" height="80"/>
	<rect id="XMLID_3728_" x="66.4" y="2279.7" class="st0" width="20" height="80"/>
	<rect id="XMLID_3726_" x="66.4" y="2439.7" class="st0" width="20" height="80"/>
	<rect id="XMLID_3724_" x="66.4" y="2599.7" class="st0" width="20" height="80"/>
	<rect id="XMLID_3722_" x="66.4" y="2759.7" class="st0" width="20" height="80"/>
	<rect id="XMLID_3720_" x="66.4" y="2919.7" class="st0" width="20" height="80"/>
	<rect id="XMLID_3718_" x="66.4" y="3079.7" class="st0" width="20" height="80"/>
</g>
<g id="roadline_1_">
	<rect id="XMLID_112_" x="1193.6" y="39.1" class="st0" width="20" height="80"/>
	<rect id="XMLID_111_" x="1193.6" y="199.1" class="st0" width="20" height="80"/>
	<rect id="XMLID_110_" x="1193.6" y="359.1" class="st0" width="20" height="80"/>
	<rect id="XMLID_109_" x="1193.6" y="519.1" class="st0" width="20" height="80"/>
	<rect id="XMLID_108_" x="1193.6" y="679.1" class="st0" width="20" height="80"/>
	<rect id="XMLID_107_" x="1193.6" y="839.1" class="st0" width="20" height="80"/>
	<rect id="XMLID_106_" x="1193.6" y="999.1" class="st0" width="20" height="80"/>
	<rect id="XMLID_105_" x="1193.6" y="1159.1" class="st0" width="20" height="80"/>
	<rect id="XMLID_104_" x="1193.6" y="1319.1" class="st0" width="20" height="80"/>
	<rect id="XMLID_103_" x="1193.6" y="1479.1" class="st0" width="20" height="80"/>
	<rect id="XMLID_102_" x="1193.6" y="1639.1" class="st0" width="20" height="80"/>
	<rect id="XMLID_101_" x="1193.6" y="1799.1" class="st0" width="20" height="80"/>
	<rect id="XMLID_100_" x="1193.6" y="1959.1" class="st0" width="20" height="80"/>
	<rect id="XMLID_99_" x="1193.6" y="2119.1" class="st0" width="20" height="80"/>
	<rect id="XMLID_98_" x="1193.6" y="2279.7" class="st0" width="20" height="80"/>
	<rect id="XMLID_97_" x="1193.6" y="2439.7" class="st0" width="20" height="80"/>
	<rect id="XMLID_96_" x="1193.6" y="2599.7" class="st0" width="20" height="80"/>
	<rect id="XMLID_95_" x="1193.6" y="2759.7" class="st0" width="20" height="80"/>
	<rect id="XMLID_94_" x="1193.6" y="2919.7" class="st0" width="20" height="80"/>
	<rect id="XMLID_93_" x="1193.6" y="3079.7" class="st0" width="20" height="80"/>
</g>
</svg>
